<?xml version="1.0" encoding="UTF-8" standalone="no"?><!DOCTYPE svg PUBLIC "-//W3C//DTD SVG 1.1//EN" "http://www.w3.org/Graphics/SVG/1.1/DTD/svg11.dtd"><svg width="100%" height="100%" viewBox="0 0 2481 3508" version="1.1" xmlns="http://www.w3.org/2000/svg" xmlns:xlink="http://www.w3.org/1999/xlink" xml:space="preserve" xmlns:serif="http://www.serif.com/" style="fill-rule:evenodd;clip-rule:evenodd;"><path d="M510.385,241.705l1523.35,1436.02" style="fill:none;fill-rule:nonzero;stroke:#231f20;stroke-width:2.09px;"/><path d="M503.242,249.282l1523.35,1436.02" style="fill:none;fill-rule:nonzero;stroke:#231f20;stroke-width:2.09px;"/><path d="M510.063,727.756l1092.6,954.412" style="fill:none;fill-rule:nonzero;stroke:#231f20;stroke-width:2.09px;"/><path d="M503.213,735.598l1092.6,954.412" style="fill:none;fill-rule:nonzero;stroke:#231f20;stroke-width:2.09px;"/><path d="M509.508,1149.7l618.905,532.417" style="fill:none;fill-rule:nonzero;stroke:#231f20;stroke-width:2.09px;"/><path d="M502.718,1157.59l618.904,532.416" style="fill:none;fill-rule:nonzero;stroke:#231f20;stroke-width:2.09px;"/><path d="M751.326,3134.65l0,-1298.9" style="fill:none;fill-rule:nonzero;stroke:#231f20;stroke-width:2.78px;"/><path d="M765.21,3134.65l-0,-1298.9" style="fill:none;fill-rule:nonzero;stroke:#231f20;stroke-width:2.78px;"/><path d="M2330.17,1754.05l-1821.82,-1604.17" style="fill:none;fill-rule:nonzero;stroke:#231f20;stroke-width:4.17px;"/><path d="M2330.17,1755.5l-1822.85,1602.49" style="fill:none;fill-rule:nonzero;stroke:#231f20;stroke-width:4.17px;"/><path d="M1420.89,1754.05l-914.6,-802.196" style="fill:none;fill-rule:nonzero;stroke:#231f20;stroke-width:4.17px;"/><path d="M1418.92,1753.82l-912.625,797.471" style="fill:none;fill-rule:nonzero;stroke:#231f20;stroke-width:4.17px;"/><path d="M1874.55,1749.1l-1366.19,1203.18" style="fill:none;fill-rule:nonzero;stroke:#231f20;stroke-width:4.17px;"/><path d="M1874.55,1754.05l-1366.19,-1200.82" style="fill:none;fill-rule:nonzero;stroke:#231f20;stroke-width:4.17px;"/><path d="M506.293,2152.67l465.312,-397.166" style="fill:none;fill-rule:nonzero;stroke:#231f20;stroke-width:4.17px;"/><path d="M506.295,1352.55l465.312,403.179" style="fill:none;fill-rule:nonzero;stroke:#231f20;stroke-width:4.17px;"/><path d="M506.982,150.001l-0.287,1450.86" style="fill:none;fill-rule:nonzero;stroke:#231f20;stroke-width:8.33px;"/><path d="M506.936,1909.32l-0.287,1450.6" style="fill:none;fill-rule:nonzero;stroke:#231f20;stroke-width:8.33px;"/><path d="M154.827,153.815l-0.288,1348.82" style="fill:none;fill-rule:nonzero;stroke:#231f20;stroke-width:4.17px;"/><path d="M154.78,2014.92l-0.287,1348.82" style="fill:none;fill-rule:nonzero;stroke:#231f20;stroke-width:4.17px;"/><rect x="644.883" y="1673.62" width="226.771" height="162.992" style="fill:#fff;"/><g transform="matrix(4.16667,0,0,4.16667,0,0)"><text x="164.969px" y="419.274px" style="font-family:'LucidaGrande', 'Lucida Grande', sans-serif;font-weight:500;font-size:10px;fill:#231f20;">F<tspan x="169.381px 172.524px 177.145px 180.288px 184.91px 189.058px 191.272px 195.894px " y="419.274px 419.274px 419.274px 419.274px 419.274px 419.274px 419.274px 419.274px ">rères et</tspan></text><text x="169.949px" y="431.274px" style="font-family:'LucidaGrande', 'Lucida Grande', sans-serif;font-weight:500;font-size:10px;fill:#231f20;">s<tspan x="173.98px 182.195px 187.334px 190.358px " y="431.274px 431.274px 431.274px 431.274px ">œurs</tspan></text></g><rect x="644.883" y="1673.62" width="226.771" height="162.992" style="fill:none;stroke:#231f20;stroke-width:4.17px;"/><rect x="644.883" y="1327.87" width="226.771" height="162.992" style="fill:#fff;"/><g transform="matrix(4.16667,0,0,4.16667,0,0)"><text x="165.275px" y="335.294px" style="font-family:'LucidaGrande', 'Lucida Grande', sans-serif;font-weight:500;font-size:10px;fill:#231f20;">O<tspan x="172.205px 177.573px 181.856px 183.909px 188.642px 190.967px 195.7px " y="335.294px 335.294px 335.294px 335.294px 335.294px 335.294px 335.294px ">ncle et</tspan></text><text x="172.015px" y="347.294px" style="font-family:'LucidaGrande', 'Lucida Grande', sans-serif;font-weight:500;font-size:10px;fill:#231f20;">t<tspan x="174.873px 179.513px 184.837px 187.695px " y="347.294px 347.294px 347.294px 347.294px ">ante</tspan></text></g><rect x="644.883" y="1327.87" width="226.771" height="162.992" style="fill:none;stroke:#231f20;stroke-width:4.17px;"/><rect x="644.883" y="484.033" width="226.771" height="162.992" style="fill:#fff;"/><g transform="matrix(4.16667,0,0,4.16667,0,0)"><text x="158.22px" y="126.045px" style="font-family:'LucidaGrande', 'Lucida Grande', sans-serif;font-weight:500;font-size:9px;fill:#231f20;">A<tspan x="163.834px 166.921px 170.008px 172.014px 176.432px 179.519px 183.938px 186.19px 191.122px 196.112px 200.126px 202.132px " y="126.045px 126.045px 126.045px 126.045px 126.045px 126.045px 126.045px 126.045px 126.045px 126.045px 126.045px 126.045px ">rrière oncle</tspan></text><text x="165.708px" y="136.845px" style="font-family:'LucidaGrande', 'Lucida Grande', sans-serif;font-weight:500;font-size:9px;fill:#231f20;">e<tspan x="170.056px " y="136.845px ">t</tspan></text><text x="174.321px" y="136.845px" style="font-family:'LucidaGrande', 'Lucida Grande', sans-serif;font-weight:500;font-size:9px;fill:#231f20;">a<tspan x="178.625px 181.642px 184.658px 186.593px 190.941px 193.957px " y="136.845px 136.845px 136.845px 136.845px 136.845px 136.845px ">rrière</tspan></text><text x="173.016px" y="147.645px" style="font-family:'LucidaGrande', 'Lucida Grande', sans-serif;font-weight:500;font-size:9px;fill:#231f20;">t<tspan x="175.588px 179.765px 184.556px 187.128px " y="147.645px 147.645px 147.645px 147.645px ">ante</tspan></text></g><rect x="644.883" y="484.033" width="226.771" height="162.992" style="fill:none;stroke:#231f20;stroke-width:4.17px;"/><rect x="644.883" y="2051.71" width="226.771" height="162.992" style="fill:#fff;"/><g transform="matrix(4.16667,0,0,4.16667,0,0)"><text x="163.629px" y="502.289px" style="font-family:'LucidaGrande', 'Lucida Grande', sans-serif;font-weight:500;font-size:9px;fill:#231f20;">F<tspan x="167.923px 169.994px 172.064px 176.121px 178.438px 182.921px " y="502.289px 502.289px 502.289px 502.289px 502.289px 502.289px ">ils et</tspan></text><text x="187.056px" y="502.289px" style="font-family:'LucidaGrande', 'Lucida Grande', sans-serif;font-weight:500;font-size:9px;fill:#231f20;">f<tspan x="189.834px 191.905px 193.975px 196.046px " y="502.289px 502.289px 502.289px 502.289px ">ille</tspan></text><text x="158.211px" y="513.089px" style="font-family:'LucidaGrande', 'Lucida Grande', sans-serif;font-weight:500;font-size:9px;fill:#231f20;">d<tspan x="163.035px 167.78px 169.788px 172.256px 175.098px 179.272px 182.114px 186.288px 188.295px 192.469px 194.995px 197.002px 201.826px " y="513.089px 513.089px 513.089px 513.089px 513.089px 513.089px 513.089px 513.089px 513.089px 513.089px 513.089px 513.089px 513.089px ">u frère et de</tspan></text><text x="168.624px" y="523.889px" style="font-family:'LucidaGrande', 'Lucida Grande', sans-serif;font-weight:500;font-size:9px;fill:#231f20;">l<tspan x="170.274px " y="523.889px ">a</tspan></text><text x="176.922px" y="523.889px" style="font-family:'LucidaGrande', 'Lucida Grande', sans-serif;font-weight:500;font-size:9px;fill:#231f20;">s<tspan x="180.558px 187.96px 192.594px " y="523.889px 523.889px 523.889px ">œur</tspan></text></g><rect x="644.883" y="2051.71" width="226.771" height="162.992" style="fill:none;stroke:#231f20;stroke-width:4.17px;"/><rect x="644.883" y="2442.38" width="226.771" height="162.992" style="fill:#fff;"/><g transform="matrix(4.16667,0,0,4.16667,0,0)"><text x="158.281px" y="597.322px" style="font-family:'LucidaGrande', 'Lucida Grande', sans-serif;font-weight:500;font-size:8px;fill:#231f20;">F<tspan x="161.979px 163.702px 165.424px " y="597.322px 597.322px 597.322px ">ils</tspan></text><text x="171.449px" y="597.322px" style="font-family:'LucidaGrande', 'Lucida Grande', sans-serif;font-weight:500;font-size:8px;fill:#231f20;">o<tspan x="175.772px " y="597.322px ">u</tspan></text><text x="181.505px" y="597.322px" style="font-family:'LucidaGrande', 'Lucida Grande', sans-serif;font-weight:500;font-size:8px;fill:#231f20;">f<tspan x="183.856px 185.578px 187.3px 189.022px 192.889px 194.829px 199.274px 203.141px " y="597.322px 597.322px 597.322px 597.322px 597.322px 597.322px 597.322px 597.322px ">ille des</tspan></text><text x="170.545px" y="606.922px" style="font-family:'LucidaGrande', 'Lucida Grande', sans-serif;font-weight:500;font-size:8px;fill:#231f20;">n<tspan x="174.732px 178.411px 181.774px 185.454px 189.641px " y="606.922px 606.922px 606.922px 606.922px 606.922px ">eveux</tspan></text><text x="159.001px" y="616.522px" style="font-family:'LucidaGrande', 'Lucida Grande', sans-serif;font-weight:500;font-size:8px;fill:#231f20;">a<tspan x="162.746px 165.347px 167.947px 169.587px 173.371px 175.972px 179.756px 181.614px 185.906px 189.691px 193.158px 196.943px 201.235px " y="616.522px 616.522px 616.522px 616.522px 616.522px 616.522px 616.522px 616.522px 616.522px 616.522px 616.522px 616.522px 616.522px ">rrière neveux</tspan></text></g><rect x="644.883" y="2442.38" width="226.771" height="162.992" style="fill:none;stroke:#231f20;stroke-width:4.17px;"/><rect x="644.883" y="2837.32" width="226.771" height="162.992" style="fill:#fff;"/><g transform="matrix(4.16667,0,0,4.16667,0,0)"><text x="168.3px" y="690.834px" style="font-family:'LucidaGrande', 'Lucida Grande', sans-serif;font-weight:500;font-size:9px;fill:#231f20;">E<tspan x="172.573px 177.554px 180.258px 184.624px 189.604px 192.366px " y="690.834px 690.834px 690.834px 690.834px 690.834px 690.834px ">nfants</tspan></text><text x="161.406px" y="701.634px" style="font-family:'LucidaGrande', 'Lucida Grande', sans-serif;font-weight:500;font-size:9px;fill:#231f20;">d<tspan x="166.261px 170.466px " y="701.634px 701.634px ">es</tspan></text><text x="175.329px" y="701.634px" style="font-family:'LucidaGrande', 'Lucida Grande', sans-serif;font-weight:500;font-size:9px;fill:#231f20;">a<tspan x="179.49px 182.363px 185.236px 187.028px 191.232px 194.105px 198.31px " y="701.634px 701.634px 701.634px 701.634px 701.634px 701.634px 701.634px ">rrières</tspan></text><text x="169.119px" y="712.434px" style="font-family:'LucidaGrande', 'Lucida Grande', sans-serif;font-weight:500;font-size:9px;fill:#231f20;">n<tspan x="173.829px 177.969px 181.752px 185.891px 190.602px " y="712.434px 712.434px 712.434px 712.434px 712.434px ">eveux</tspan></text></g><rect x="644.883" y="2837.32" width="226.771" height="162.992" style="fill:none;stroke:#231f20;stroke-width:4.17px;"/><rect x="847.442" y="624.804" width="49.608" height="43.7" style="fill:#fff;"/><text x="860.244px" y="663.237px" style="font-family:'LucidaGrande', 'Lucida Grande', sans-serif;font-weight:500;font-size:50px;fill:#231f20;">5</text><rect x="847.442" y="624.804" width="49.608" height="43.7" style="fill:none;stroke:#231f20;stroke-width:4.17px;"/><rect x="844.488" y="1468.15" width="49.608" height="43.7" style="fill:#fff;"/><text x="857.292px" y="1506.58px" style="font-family:'LucidaGrande', 'Lucida Grande', sans-serif;font-weight:500;font-size:50px;fill:#231f20;">3</text><rect x="844.488" y="1468.15" width="49.608" height="43.7" style="fill:none;stroke:#231f20;stroke-width:4.17px;"/><rect x="847.442" y="1813.9" width="49.608" height="43.7" style="fill:#fff;"/><text x="860.244px" y="1852.33px" style="font-family:'LucidaGrande', 'Lucida Grande', sans-serif;font-weight:500;font-size:50px;fill:#231f20;">2</text><rect x="847.442" y="1813.9" width="49.608" height="43.7" style="fill:none;stroke:#231f20;stroke-width:4.17px;"/><rect x="843.275" y="2190.67" width="49.608" height="43.7" style="fill:#fff;"/><text x="856.078px" y="2229.1px" style="font-family:'LucidaGrande', 'Lucida Grande', sans-serif;font-weight:500;font-size:50px;fill:#231f20;">3</text><rect x="843.275" y="2190.67" width="49.608" height="43.7" style="fill:none;stroke:#231f20;stroke-width:4.17px;"/><rect x="843.275" y="2585.6" width="49.608" height="43.7" style="fill:#fff;"/><text x="856.078px" y="2624.04px" style="font-family:'LucidaGrande', 'Lucida Grande', sans-serif;font-weight:500;font-size:50px;fill:#231f20;">4</text><rect x="843.275" y="2585.6" width="49.608" height="43.7" style="fill:none;stroke:#231f20;stroke-width:4.17px;"/><rect x="847.442" y="2980.55" width="49.608" height="43.7" style="fill:#fff;"/><text x="860.244px" y="3018.98px" style="font-family:'LucidaGrande', 'Lucida Grande', sans-serif;font-weight:500;font-size:50px;fill:#231f20;">5</text><rect x="847.442" y="2980.55" width="49.608" height="43.7" style="fill:none;stroke:#231f20;stroke-width:4.17px;"/><rect x="1114.08" y="1672.16" width="226.771" height="162.992" style="fill:#fff;"/><g transform="matrix(4.16667,0,0,4.16667,0,0)"><text x="274.318px" y="411.197px" style="font-family:'LucidaGrande', 'Lucida Grande', sans-serif;font-weight:500;font-size:9px;fill:#231f20;">C<tspan x="279.732px 284.446px 289.218px 292.992px 294.78px 299.552px 303.326px 305.361px 310.075px " y="411.197px 411.197px 411.197px 411.197px 411.197px 411.197px 411.197px 411.197px 411.197px ">ousins ou</tspan></text><text x="279.196px" y="421.997px" style="font-family:'LucidaGrande', 'Lucida Grande', sans-serif;font-weight:500;font-size:9px;fill:#231f20;">c<tspan x="282.944px 287.61px 292.333px 296.059px 297.798px 302.521px 306.673px " y="421.997px 421.997px 421.997px 421.997px 421.997px 421.997px 421.997px ">ousines</tspan></text><text x="276.091px" y="432.797px" style="font-family:'LucidaGrande', 'Lucida Grande', sans-serif;font-weight:500;font-size:9px;fill:#231f20;">g<tspan x="280.805px 284.921px 287.705px 295.209px 299.281px 300.984px 305.671px 309.787px " y="432.797px 432.797px 432.797px 432.797px 432.797px 432.797px 432.797px 432.797px ">ermaines</tspan></text></g><rect x="1114.08" y="1672.16" width="226.771" height="162.992" style="fill:none;stroke:#231f20;stroke-width:4.17px;"/><rect x="1316.63" y="1813.9" width="49.608" height="43.7" style="fill:#fff;"/><text x="1329.44px" y="1852.33px" style="font-family:'LucidaGrande', 'Lucida Grande', sans-serif;font-weight:500;font-size:50px;fill:#231f20;">4</text><g transform="matrix(4.16667,0,0,4.16667,0,0)"><text x="279.808px" y="493.785px" style="font-family:'LucidaGrande', 'Lucida Grande', sans-serif;font-weight:500;font-size:9px;fill:#231f20;">A<tspan x="285.5px 288.665px 291.829px 293.913px 298.409px 301.574px 306.07px " y="493.785px 493.785px 493.785px 493.785px 493.785px 493.785px 493.785px ">rrières</tspan></text><text x="279.196px" y="504.585px" style="font-family:'LucidaGrande', 'Lucida Grande', sans-serif;font-weight:500;font-size:9px;fill:#231f20;">c<tspan x="282.944px 287.61px 292.333px 296.059px 297.798px 302.521px 306.673px " y="504.585px 504.585px 504.585px 504.585px 504.585px 504.585px 504.585px ">ousines</tspan></text><text x="276.091px" y="515.385px" style="font-family:'LucidaGrande', 'Lucida Grande', sans-serif;font-weight:500;font-size:9px;fill:#231f20;">g<tspan x="280.805px 284.921px 287.705px 295.209px 299.281px 300.984px 305.671px 309.787px " y="515.385px 515.385px 515.385px 515.385px 515.385px 515.385px 515.385px 515.385px ">ermaines</tspan></text></g><rect x="1316.63" y="1813.9" width="49.608" height="43.7" style="fill:none;stroke:#231f20;stroke-width:4.17px;"/><rect x="1114.08" y="2016.28" width="226.771" height="162.992" style="fill:none;stroke:#231f20;stroke-width:4.17px;"/><rect x="1316.63" y="2159.5" width="49.608" height="43.7" style="fill:#fff;"/><text x="1329.44px" y="2197.94px" style="font-family:'LucidaGrande', 'Lucida Grande', sans-serif;font-weight:500;font-size:50px;fill:#231f20;">5</text><rect x="1316.63" y="2159.5" width="49.608" height="43.7" style="fill:none;stroke:#231f20;stroke-width:4.17px;"/><rect x="1130.05" y="906.808" width="210.796" height="155.25" style="fill:#fff;"/><g transform="matrix(4.16667,0,0,4.16667,0,0)"><text x="281.405px" y="226.058px" style="font-family:'LucidaGrande', 'Lucida Grande', sans-serif;font-weight:500;font-size:7px;fill:#231f20;">E<tspan x="284.623px 288.39px 290.387px 293.676px 297.443px 299.484px 302.476px 304.114px 307.942px " y="226.058px 226.058px 226.058px 226.058px 226.058px 226.058px 226.058px 226.058px 226.058px ">nfants du</tspan></text><text x="280.033px" y="234.458px" style="font-family:'LucidaGrande', 'Lucida Grande', sans-serif;font-weight:500;font-size:7px;fill:#231f20;">g<tspan x="283.764px 285.995px 289.226px 292.937px 296.708px 298.289px 301.955px 305.665px 308.617px 310.006px " y="234.458px 234.458px 234.458px 234.458px 234.458px 234.458px 234.458px 234.458px 234.458px 234.458px ">rand oncle</tspan></text><text x="281.195px" y="242.858px" style="font-family:'LucidaGrande', 'Lucida Grande', sans-serif;font-weight:500;font-size:7px;fill:#231f20;">e<tspan x="284.417px 286.357px 287.894px 290.801px 294.423px 298.089px 300.979px 302.325px 305.991px 309.213px " y="242.858px 242.858px 242.858px 242.858px 242.858px 242.858px 242.858px 242.858px 242.858px 242.858px ">t cousines</tspan></text><text x="284.835px" y="251.258px" style="font-family:'LucidaGrande', 'Lucida Grande', sans-serif;font-weight:500;font-size:7px;fill:#231f20;">r<tspan x="286.923px 290.046px 295.804px 299.372px 302.495px 305.618px " y="251.258px 251.258px 251.258px 251.258px 251.258px 251.258px ">emuées</tspan></text></g><rect x="1130.05" y="906.808" width="210.796" height="155.25" style="fill:none;stroke:#231f20;stroke-width:4.17px;"/><rect x="1316.63" y="1040.8" width="49.608" height="43.7" style="fill:#fff;"/><text x="1329.44px" y="1079.23px" style="font-family:'LucidaGrande', 'Lucida Grande', sans-serif;font-weight:500;font-size:50px;fill:#231f20;">6</text><g transform="matrix(4.16667,0,0,4.16667,0,0)"><text x="387.309px" y="501.926px" style="font-family:'LucidaGrande', 'Lucida Grande', sans-serif;font-weight:500;font-size:8px;fill:#231f20;">E<tspan x="391.107px 395.534px 397.938px 401.819px 406.246px 408.701px " y="501.926px 501.926px 501.926px 501.926px 501.926px 501.926px ">nfants</tspan></text><text x="378.109px" y="511.526px" style="font-family:'LucidaGrande', 'Lucida Grande', sans-serif;font-weight:500;font-size:8px;fill:#231f20;">d<tspan x="382.398px 384.184px 387.857px 390.385px 392.913px 394.48px 398.192px 400.72px 404.431px 406.217px 409.57px 413.738px 417.958px " y="511.526px 511.526px 511.526px 511.526px 511.526px 511.526px 511.526px 511.526px 511.526px 511.526px 511.526px 511.526px 511.526px ">’arrière cou-</tspan></text><text x="377.341px" y="521.126px" style="font-family:'LucidaGrande', 'Lucida Grande', sans-serif;font-weight:500;font-size:8px;fill:#231f20;">s<tspan x="380.559px 382.012px 386.117px 389.714px 392.932px 394.604px 397.017px 400.615px 407.224px 411.329px 414.926px 418.523px " y="521.126px 521.126px 521.126px 521.126px 521.126px 521.126px 521.126px 521.126px 521.126px 521.126px 521.126px 521.126px ">ines remuées</tspan></text></g><rect x="1316.63" y="1040.8" width="49.608" height="43.7" style="fill:none;stroke:#231f20;stroke-width:4.17px;"/><rect x="1551.08" y="2036.57" width="226.771" height="162.992" style="fill:none;stroke:#231f20;stroke-width:4.17px;"/><rect x="1753.64" y="2176.84" width="49.608" height="43.7" style="fill:#fff;"/><text x="1766.44px" y="2215.27px" style="font-family:'LucidaGrande', 'Lucida Grande', sans-serif;font-weight:500;font-size:50px;fill:#231f20;">7</text><rect x="1753.64" y="2176.84" width="49.608" height="43.7" style="fill:none;stroke:#231f20;stroke-width:4.17px;"/><rect x="1996.95" y="1673.62" width="177.15" height="162.992" style="fill:#fff;"/><text x="2073.52px" y="1777.81px" style="font-family:'LucidaGrande', 'Lucida Grande', sans-serif;font-weight:500;font-size:50px;fill:#231f20;">8</text><rect x="1996.95" y="1673.62" width="177.15" height="162.992" style="fill:none;stroke:#231f20;stroke-width:4.17px;"/><rect x="2152.26" y="1813.9" width="49.608" height="43.7" style="fill:#fff;"/><text x="2165.07px" y="1852.33px" style="font-family:'LucidaGrande', 'Lucida Grande', sans-serif;font-weight:500;font-size:50px;fill:#231f20;">8</text><g transform="matrix(4.16667,0,0,4.16667,0,0)"><text x="280.906px" y="593.606px" style="font-family:'LucidaGrande', 'Lucida Grande', sans-serif;font-weight:500;font-size:9px;fill:#231f20;">E<tspan x="285.179px 290.16px 292.864px 297.23px 302.211px 304.972px " y="593.606px 593.606px 593.606px 593.606px 593.606px 593.606px ">nfants</tspan></text><text x="278.071px" y="604.406px" style="font-family:'LucidaGrande', 'Lucida Grande', sans-serif;font-weight:500;font-size:9px;fill:#231f20;">d<tspan x="282.912px 284.936px 289.082px 291.941px 294.799px 296.577px 300.767px 303.626px 307.816px " y="604.406px 604.406px 604.406px 604.406px 604.406px 604.406px 604.406px 604.406px 604.406px ">’arrières</tspan></text><text x="281.131px" y="615.206px" style="font-family:'LucidaGrande', 'Lucida Grande', sans-serif;font-weight:500;font-size:9px;fill:#231f20;">c<tspan x="284.927px 289.642px 294.414px 298.188px 299.976px 304.747px " y="615.206px 615.206px 615.206px 615.206px 615.206px 615.206px ">ousins</tspan></text></g><rect x="2152.26" y="1813.9" width="49.608" height="43.7" style="fill:none;stroke:#231f20;stroke-width:4.17px;"/><rect x="1114.08" y="2428.03" width="226.771" height="162.992" style="fill:none;stroke:#231f20;stroke-width:4.17px;"/><rect x="1316.63" y="2568.31" width="49.608" height="43.7" style="fill:#fff;"/><text x="1329.44px" y="2606.74px" style="font-family:'LucidaGrande', 'Lucida Grande', sans-serif;font-weight:500;font-size:50px;fill:#231f20;">6</text><rect x="1316.63" y="2568.31" width="49.608" height="43.7" style="fill:none;stroke:#231f20;stroke-width:4.17px;"/><rect x="1549.59" y="1279.76" width="226.771" height="162.992" style="fill:#fff;"/><text x="1652.98px" y="1373.94px" style="font-family:'LucidaGrande', 'Lucida Grande', sans-serif;font-weight:500;font-size:41.667px;fill:#231f20;">7</text><g transform="matrix(4.16667,0,0,4.16667,0,0)"><text x="73.615px" y="47.429px" style="font-family:'LucidaGrande', 'Lucida Grande', sans-serif;font-weight:500;font-size:11px;fill:#231f20;">G<tspan x="80.867px 84.67px 90.047px 96.176px " y="47.429px 47.429px 47.429px 47.429px ">rand</tspan></text><text x="65.783px" y="60.629px" style="font-family:'LucidaGrande', 'Lucida Grande', sans-serif;font-weight:500;font-size:11px;fill:#231f20;">b<tspan x="71.701px 73.876px 78.478px 83.548px 85.722px 90.845px 96.667px 98.841px 101.316px 106.44px " y="60.629px 60.629px 60.629px 60.629px 60.629px 60.629px 60.629px 60.629px 60.629px 60.629px ">isaïeul et</tspan></text><text x="72.559px" y="73.829px" style="font-family:'LucidaGrande', 'Lucida Grande', sans-serif;font-weight:500;font-size:11px;fill:#231f20;">g<tspan x="78.34px 81.763px 86.76px 92.509px 98.354px " y="73.829px 73.829px 73.829px 73.829px 73.829px ">rande</tspan></text><text x="68.709px" y="87.029px" style="font-family:'LucidaGrande', 'Lucida Grande', sans-serif;font-weight:500;font-size:11px;fill:#231f20;">b<tspan x="74.683px 76.914px 81.572px 86.698px 88.928px 94.107px 99.985px 102.215px " y="87.029px 87.029px 87.029px 87.029px 87.029px 87.029px 87.029px 87.029px ">isaïeule</tspan></text></g><rect x="1549.59" y="1279.76" width="226.771" height="162.992" style="fill:none;stroke:#231f20;stroke-width:4.17px;"/><rect x="223.279" y="150.408" width="285.104" height="243.179" style="fill:none;stroke:#231f20;stroke-width:4.17px;"/><rect x="335.125" y="373.821" width="49.608" height="43.7" style="fill:#fff;"/><text x="347.927px" y="412.253px" style="font-family:'LucidaGrande', 'Lucida Grande', sans-serif;font-weight:500;font-size:50px;fill:#231f20;">4</text><g transform="matrix(4.16667,0,0,4.16667,0,0)"><text x="64.485px" y="157.432px" style="font-family:'LucidaGrande', 'Lucida Grande', sans-serif;font-weight:500;font-size:11px;fill:#231f20;">B<tspan x="69.976px 72.319px 77.09px 82.329px 84.672px 89.964px 95.955px 98.298px 100.942px 106.234px " y="157.432px 157.432px 157.432px 157.432px 157.432px 157.432px 157.432px 157.432px 157.432px 157.432px ">isaïeul et</tspan></text><text x="67.873px" y="170.632px" style="font-family:'LucidaGrande', 'Lucida Grande', sans-serif;font-weight:500;font-size:11px;fill:#231f20;">b<tspan x="73.847px 76.078px 80.736px 85.861px 88.092px 93.271px 99.149px 101.379px " y="170.632px 170.632px 170.632px 170.632px 170.632px 170.632px 170.632px 170.632px ">isaïeule</tspan></text></g><rect x="335.125" y="373.821" width="49.608" height="43.7" style="fill:none;stroke:#231f20;stroke-width:4.17px;"/><rect x="219.792" y="553.75" width="285.104" height="241.504" style="fill:none;stroke:#231f20;stroke-width:4.17px;"/><rect x="337.542" y="775.487" width="49.608" height="43.7" style="fill:#fff;"/><text x="350.346px" y="813.92px" style="font-family:'LucidaGrande', 'Lucida Grande', sans-serif;font-weight:500;font-size:50px;fill:#231f20;">3</text><g transform="matrix(4.16667,0,0,4.16667,0,0)"><text x="56.213px" y="253.101px" style="font-family:'LucidaGrande', 'Lucida Grande', sans-serif;font-weight:500;font-size:11px;fill:#231f20;">G<tspan x="63.041px 66.42px 71.373px 77.078px 82.879px 88.122px 93.924px 98.93px 102.31px 107.316px 109.675px 114.682px " y="253.101px 253.101px 253.101px 253.101px 253.101px 253.101px 253.101px 253.101px 253.101px 253.101px 253.101px 253.101px ">rand-père et</tspan></text><text x="61.108px" y="266.301px" style="font-family:'LucidaGrande', 'Lucida Grande', sans-serif;font-weight:500;font-size:11px;fill:#231f20;">g<tspan x="66.727px 69.988px 74.823px 80.409px 86.092px 91.217px 100.247px 105.135px 108.396px " y="266.301px 266.301px 266.301px 266.301px 266.301px 266.301px 266.301px 266.301px 266.301px ">rand-mère</tspan></text></g><rect x="337.542" y="775.487" width="49.608" height="43.7" style="fill:none;stroke:#231f20;stroke-width:4.17px;"/><rect x="220.325" y="952.371" width="285.104" height="241.504" style="fill:none;stroke:#231f20;stroke-width:4.17px;"/><rect x="335.125" y="1174.11" width="49.608" height="43.7" style="fill:#fff;"/><text x="347.927px" y="1212.54px" style="font-family:'LucidaGrande', 'Lucida Grande', sans-serif;font-weight:500;font-size:50px;fill:#231f20;">2</text><text x="249.003px" y="1488.66px" style="font-family:'LucidaGrande', 'Lucida Grande', sans-serif;font-weight:500;font-size:45.833px;fill:#231f20;">P<tspan x="270.057px 291.313px 305.787px 327.043px 337.266px 358.521px 371.384px 381.607px 420.117px 441.373px 455.848px " y="1488.66px 1488.66px 1488.66px 1488.66px 1488.66px 1488.66px 1488.66px 1488.66px 1488.66px 1488.66px 1488.66px ">ère et mère</tspan></text><rect x="335.125" y="1174.11" width="49.608" height="43.7" style="fill:none;stroke:#231f20;stroke-width:4.17px;"/><rect x="219.792" y="1357.28" width="285.104" height="241.504" style="fill:none;stroke:#231f20;stroke-width:4.17px;"/><rect x="337.542" y="1579.01" width="49.608" height="43.7" style="fill:#fff;"/><text x="350.346px" y="1617.44px" style="font-family:'LucidaGrande', 'Lucida Grande', sans-serif;font-weight:500;font-size:50px;fill:#231f20;">1</text><g transform="matrix(4.16667,0,0,4.16667,0,0)"><text x="62.639px" y="491.268px" style="font-family:'LucidaGrande', 'Lucida Grande', sans-serif;font-weight:500;font-size:11px;fill:#231f20;">F<tspan x="67.814px 70.272px 72.729px 77.614px 80.372px 85.779px " y="491.268px 491.268px 491.268px 491.268px 491.268px 491.268px ">ils et</tspan></text><text x="91.272px" y="491.268px" style="font-family:'LucidaGrande', 'Lucida Grande', sans-serif;font-weight:500;font-size:11px;fill:#231f20;">f<tspan x="94.594px 97.052px 99.509px 101.966px 107.373px " y="491.268px 491.268px 491.268px 491.268px 491.268px ">illes</tspan></text></g><rect x="337.542" y="1579.01" width="49.608" height="43.7" style="fill:none;stroke:#231f20;stroke-width:4.17px;"/><rect x="220.325" y="1911.4" width="285.104" height="241.504" style="fill:none;stroke:#231f20;stroke-width:4.17px;"/><rect x="335.125" y="2133.14" width="49.608" height="43.7" style="fill:#fff;"/><text x="347.927px" y="2171.57px" style="font-family:'LucidaGrande', 'Lucida Grande', sans-serif;font-weight:500;font-size:50px;fill:#231f20;">1</text><g transform="matrix(4.16667,0,0,4.16667,0,0)"><text x="63.458px" y="578.35px" style="font-family:'LucidaGrande', 'Lucida Grande', sans-serif;font-weight:500;font-size:11px;fill:#231f20;">P<tspan x="68.565px 73.72px 76.861px 79.067px 82.208px 87.599px 90.671px 92.877px 95.083px 99.717px 102.224px 107.379px " y="578.35px 578.35px 578.35px 578.35px 578.35px 578.35px 578.35px 578.35px 578.35px 578.35px 578.35px 578.35px ">etit-fils et</tspan></text><text x="64.657px" y="591.55px" style="font-family:'LucidaGrande', 'Lucida Grande', sans-serif;font-weight:500;font-size:11px;fill:#231f20;">p<tspan x="70.641px 75.83px 79.005px 81.246px 84.421px 89.61px 95.035px 98.14px 100.381px 102.621px 104.861px " y="591.55px 591.55px 591.55px 591.55px 591.55px 591.55px 591.55px 591.55px 591.55px 591.55px 591.55px ">etite-fille</tspan></text></g><rect x="335.125" y="2133.14" width="49.608" height="43.7" style="fill:none;stroke:#231f20;stroke-width:4.17px;"/><rect x="220.325" y="2307.58" width="285.104" height="241.504" style="fill:none;stroke:#231f20;stroke-width:4.17px;"/><rect x="335.125" y="2529.31" width="49.608" height="43.7" style="fill:#fff;"/><text x="347.927px" y="2567.75px" style="font-family:'LucidaGrande', 'Lucida Grande', sans-serif;font-weight:500;font-size:50px;fill:#231f20;">2</text><g transform="matrix(4.16667,0,0,4.16667,0,0)"><text x="58.039px" y="675.553px" style="font-family:'LucidaGrande', 'Lucida Grande', sans-serif;font-weight:500;font-size:11px;fill:#231f20;">A<tspan x="64.865px 68.601px 72.338px 74.754px 80.118px 83.855px " y="675.553px 675.553px 675.553px 675.553px 675.553px 675.553px ">rrière</tspan></text><text x="92.634px" y="675.553px" style="font-family:'LucidaGrande', 'Lucida Grande', sans-serif;font-weight:500;font-size:11px;fill:#231f20;">f<tspan x="95.915px 98.33px 100.746px 105.589px 108.305px 113.67px " y="675.553px 675.553px 675.553px 675.553px 675.553px 675.553px ">ils et</tspan></text><text x="62.967px" y="688.753px" style="font-family:'LucidaGrande', 'Lucida Grande', sans-serif;font-weight:500;font-size:11px;fill:#231f20;">a<tspan x="68.335px 72.129px 75.923px 78.395px 83.817px 87.611px " y="688.753px 688.753px 688.753px 688.753px 688.753px 688.753px ">rrière</tspan></text><text x="94.723px" y="688.753px" style="font-family:'LucidaGrande', 'Lucida Grande', sans-serif;font-weight:500;font-size:11px;fill:#231f20;">f<tspan x="98.061px 100.533px 103.006px 105.478px " y="688.753px 688.753px 688.753px 688.753px ">ille</tspan></text></g><rect x="335.125" y="2529.31" width="49.608" height="43.7" style="fill:none;stroke:#231f20;stroke-width:4.17px;"/><rect x="219.792" y="2712.59" width="285.104" height="241.504" style="fill:none;stroke:#231f20;stroke-width:4.17px;"/><rect x="337.542" y="2934.33" width="49.608" height="43.7" style="fill:#fff;"/><text x="350.346px" y="2972.76px" style="font-family:'LucidaGrande', 'Lucida Grande', sans-serif;font-weight:500;font-size:50px;fill:#231f20;">3</text><g transform="matrix(4.16667,0,0,4.16667,0,0)"><text x="66.567px" y="753.697px" style="font-family:'LucidaGrande', 'Lucida Grande', sans-serif;font-weight:500;font-size:10px;fill:#231f20;">E<tspan x="71.178px 76.575px 79.442px 84.156px 89.553px 92.484px 96.772px 99.127px 104.612px " y="753.697px 753.697px 753.697px 753.697px 753.697px 753.697px 753.697px 753.697px 753.697px ">nfants de</tspan></text><text x="64.957px" y="765.697px" style="font-family:'LucidaGrande', 'Lucida Grande', sans-serif;font-weight:500;font-size:10px;fill:#231f20;">l<tspan x="66.973px 69.262px 73.91px 77.127px 80.344px 82.36px 87.057px 90.274px 94.971px 99.882px 102.684px 104.7px 106.716px " y="765.697px 765.697px 765.697px 765.697px 765.697px 765.697px 765.697px 765.697px 765.697px 765.697px 765.697px 765.697px 765.697px ">’arrière-fils</tspan></text><text x="58.867px" y="777.697px" style="font-family:'LucidaGrande', 'Lucida Grande', sans-serif;font-weight:500;font-size:10px;fill:#231f20;">o<tspan x="64.285px " y="777.697px ">u</tspan></text><text x="71.437px" y="777.697px" style="font-family:'LucidaGrande', 'Lucida Grande', sans-serif;font-weight:500;font-size:10px;fill:#231f20;">f<tspan x="74.39px 76.556px 78.722px 80.889px 85.736px 88.176px 90.616px 97.118px 100.486px 105.284px 110.766px " y="777.697px 777.697px 777.697px 777.697px 777.697px 777.697px 777.697px 777.697px 777.697px 777.697px 777.697px ">ille. Grand</tspan></text><text x="67.447px" y="789.697px" style="font-family:'LucidaGrande', 'Lucida Grande', sans-serif;font-weight:500;font-size:10px;fill:#231f20;">a<tspan x="72.29px 75.703px 79.116px 81.328px 86.22px 89.633px " y="789.697px 789.697px 789.697px 789.697px 789.697px 789.697px ">rrière</tspan></text><text x="96.317px" y="789.697px" style="font-family:'LucidaGrande', 'Lucida Grande', sans-serif;font-weight:500;font-size:10px;fill:#231f20;">f<tspan x="99.315px 101.526px 103.738px " y="789.697px 789.697px 789.697px ">ils</tspan></text></g><rect x="337.542" y="2934.33" width="49.608" height="43.7" style="fill:none;stroke:#231f20;stroke-width:4.17px;"/><rect x="222.746" y="3096.22" width="285.104" height="241.504" style="fill:none;stroke:#231f20;stroke-width:4.17px;"/><rect x="337.542" y="3317.96" width="49.608" height="43.7" style="fill:#fff;"/><text x="350.346px" y="3356.39px" style="font-family:'LucidaGrande', 'Lucida Grande', sans-serif;font-weight:500;font-size:50px;fill:#231f20;">4</text><text x="1028.91px" y="1785.64px" style="font-family:'LucidaGrande', 'Lucida Grande', sans-serif;font-weight:500;font-size:95.833px;fill:#231f20;">I</text><text x="1458.15px" y="1785.64px" style="font-family:'LucidaGrande', 'Lucida Grande', sans-serif;font-weight:500;font-size:95.833px;fill:#231f20;">I<tspan x="1490.83px " y="1785.64px ">I</tspan></text><text x="1889.79px" y="1785.64px" style="font-family:'LucidaGrande', 'Lucida Grande', sans-serif;font-weight:500;font-size:95.833px;fill:#231f20;">I<tspan x="1922.47px 1955.14px " y="1785.64px 1785.64px ">II</tspan></text><text x="2193.77px" y="1788.61px" style="font-family:'LucidaGrande', 'Lucida Grande', sans-serif;font-weight:500;font-size:95.833px;fill:#231f20;">I<tspan x="2226.45px " y="1788.61px ">V</tspan></text><g transform="matrix(0,-4.16667,4.16667,0,0,0)"><text x="-270.956px" y="48.129px" style="font-family:'LucidaGrande', 'Lucida Grande', sans-serif;font-weight:500;font-size:11px;fill:#231f20;">L<tspan x="-266.137px -264.004px -258.192px -252.412px " y="48.129px 48.129px 48.129px 48.129px ">igne</tspan></text><text x="-243.676px" y="48.129px" style="font-family:'LucidaGrande', 'Lucida Grande', sans-serif;font-weight:500;font-size:11px;fill:#231f20;">d<tspan x="-237.799px -234.345px -228.634px -226.501px -223.433px " y="48.129px 48.129px 48.129px 48.129px 48.129px ">roite</tspan></text><text x="-215.176px" y="48.129px" style="font-family:'LucidaGrande', 'Lucida Grande', sans-serif;font-weight:500;font-size:11px;fill:#231f20;">d<tspan x="-209.299px -204.217px " y="48.129px 48.129px ">es</tspan></text><text x="-198.159px" y="48.129px" style="font-family:'LucidaGrande', 'Lucida Grande', sans-serif;font-weight:500;font-size:11px;fill:#231f20;">a<tspan x="-193.131px -188.57px -183.982px -178.9px -173.12px -167.243px -162.215px -156.435px -153.368px " y="48.129px 48.129px 48.129px 48.129px 48.129px 48.129px 48.129px 48.129px 48.129px ">scendants</tspan></text></g><g transform="matrix(0,-4.16667,4.16667,0,0,0)"><text x="-691.145px" y="47.766px" style="font-family:'LucidaGrande', 'Lucida Grande', sans-serif;font-weight:500;font-size:11px;fill:#231f20;">L<tspan x="-686.336px -684.213px -678.411px -672.641px " y="47.766px 47.766px 47.766px 47.766px ">igne</tspan></text><text x="-663.865px" y="47.766px" style="font-family:'LucidaGrande', 'Lucida Grande', sans-serif;font-weight:500;font-size:11px;fill:#231f20;">d<tspan x="-657.998px -654.554px -648.854px -646.731px -643.673px " y="47.766px 47.766px 47.766px 47.766px 47.766px ">roite</tspan></text><text x="-635.365px" y="47.766px" style="font-family:'LucidaGrande', 'Lucida Grande', sans-serif;font-weight:500;font-size:11px;fill:#231f20;">d<tspan x="-629.498px -624.426px " y="47.766px 47.766px ">es</tspan></text><text x="-618.348px" y="47.766px" style="font-family:'LucidaGrande', 'Lucida Grande', sans-serif;font-weight:500;font-size:11px;fill:#231f20;">d<tspan x="-612.481px -607.409px -602.859px -598.281px -593.21px -587.44px -581.573px -576.555px -570.785px -567.728px " y="47.766px 47.766px 47.766px 47.766px 47.766px 47.766px 47.766px 47.766px 47.766px 47.766px ">escendants</tspan></text></g><g transform="matrix(4.16667,0,0,4.16667,0,0)"><text x="178.158px" y="767.257px" style="font-family:'LucidaGrande', 'Lucida Grande', sans-serif;font-weight:500;font-size:11px;fill:#231f20;">L<tspan x="183.102px 185.361px 191.299px 197.205px " y="767.257px 767.257px 767.257px 767.257px ">igne</tspan></text><text x="205.481px" y="767.257px" style="font-family:'LucidaGrande', 'Lucida Grande', sans-serif;font-weight:500;font-size:11px;fill:#231f20;">t<tspan x="208.675px 212.255px 217.409px 223.315px 228.002px 232.774px 237.982px 241.562px 246.249px 251.403px 253.662px " y="767.257px 767.257px 767.257px 767.257px 767.257px 767.257px 767.257px 767.257px 767.257px 767.257px 767.257px ">ransversale</tspan></text><text x="202.446px" y="780.457px" style="font-family:'LucidaGrande', 'Lucida Grande', sans-serif;font-weight:500;font-size:11px;fill:#231f20;">i<tspan x="204.652px 210.506px 215.662px 221.548px 226.65px 228.856px " y="780.457px 780.457px 780.457px 780.457px 780.457px 780.457px ">négale</tspan></text></g><rect x="337.542" y="3317.96" width="49.608" height="43.7" style="fill:none;stroke:#231f20;stroke-width:4.17px;"/><rect x="644.883" y="884.958" width="226.771" height="162.992" style="fill:#fff;"/><g transform="matrix(4.16667,0,0,4.16667,0,0)"><text x="166.037px" y="222.268px" style="font-family:'LucidaGrande', 'Lucida Grande', sans-serif;font-weight:500;font-size:9px;fill:#231f20;">L<tspan x="170.075px 174.329px 176.416px 181.267px 184.189px 188.399px 193.224px " y="222.268px 222.268px 222.268px 222.268px 222.268px 222.268px 222.268px ">e grand</tspan></text><text x="168.062px" y="233.068px" style="font-family:'LucidaGrande', 'Lucida Grande', sans-serif;font-weight:500;font-size:9px;fill:#231f20;">o<tspan x="172.706px 177.407px 181.133px 182.85px 186.981px 188.944px 193.074px " y="233.068px 233.068px 233.068px 233.068px 233.068px 233.068px 233.068px ">ncle et</tspan></text><text x="159.53px" y="243.868px" style="font-family:'LucidaGrande', 'Lucida Grande', sans-serif;font-weight:500;font-size:9px;fill:#231f20;">g<tspan x="164.264px 167.069px 171.162px 175.869px 180.656px 184.793px 186.763px 189.252px 193.344px 198.052px 200.541px " y="243.868px 243.868px 243.868px 243.868px 243.868px 243.868px 243.868px 243.868px 243.868px 243.868px 243.868px ">rande tante</tspan></text></g><rect x="644.883" y="884.958" width="226.771" height="162.992" style="fill:none;stroke:#231f20;stroke-width:4.17px;"/><rect x="1131.17" y="1298" width="209.671" height="162.992" style="fill:#fff;"/><g transform="matrix(4.16667,0,0,4.16667,0,0)"><text x="281.54px" y="319.944px" style="font-family:'LucidaGrande', 'Lucida Grande', sans-serif;font-weight:500;font-size:7px;fill:#231f20;">E<tspan x="284.757px 288.525px 290.522px 293.81px 297.578px 299.619px 302.61px 304.248px 308.077px " y="319.944px 319.944px 319.944px 319.944px 319.944px 319.944px 319.944px 319.944px 319.944px ">nfants du</tspan></text><text x="280.168px" y="328.344px" style="font-family:'LucidaGrande', 'Lucida Grande', sans-serif;font-weight:500;font-size:7px;fill:#231f20;">g<tspan x="283.899px 286.129px 289.361px 293.071px 296.843px 298.424px 302.09px 305.8px 308.752px 310.141px " y="328.344px 328.344px 328.344px 328.344px 328.344px 328.344px 328.344px 328.344px 328.344px 328.344px ">rand oncle</tspan></text><text x="281.33px" y="336.744px" style="font-family:'LucidaGrande', 'Lucida Grande', sans-serif;font-weight:500;font-size:7px;fill:#231f20;">e<tspan x="284.552px 286.492px 288.029px 290.936px 294.558px 298.224px 301.114px 302.459px 306.126px 309.347px " y="336.744px 336.744px 336.744px 336.744px 336.744px 336.744px 336.744px 336.744px 336.744px 336.744px ">t cousines</tspan></text><text x="284.97px" y="345.144px" style="font-family:'LucidaGrande', 'Lucida Grande', sans-serif;font-weight:500;font-size:7px;fill:#231f20;">r<tspan x="287.058px 290.181px 295.939px 299.506px 302.63px 305.753px " y="345.144px 345.144px 345.144px 345.144px 345.144px 345.144px ">emuées</tspan></text></g><rect x="1131.17" y="1298" width="209.671" height="162.992" style="fill:none;stroke:#231f20;stroke-width:4.17px;"/><rect x="1551.08" y="1673.62" width="226.771" height="162.992" style="fill:#fff;"/><g transform="matrix(4.16667,0,0,4.16667,0,0)"><text x="383.048px" y="419.274px" style="font-family:'LucidaGrande', 'Lucida Grande', sans-serif;font-weight:500;font-size:10px;fill:#231f20;">A<tspan x="389.372px 392.888px 396.405px 398.72px 403.716px 407.232px 412.228px " y="419.274px 419.274px 419.274px 419.274px 419.274px 419.274px 419.274px ">rrières</tspan></text><text x="384.518px" y="431.274px" style="font-family:'LucidaGrande', 'Lucida Grande', sans-serif;font-weight:500;font-size:10px;fill:#231f20;">c<tspan x="388.736px 393.974px 399.276px 403.469px 405.456px 410.758px " y="431.274px 431.274px 431.274px 431.274px 431.274px 431.274px ">ousins</tspan></text></g><rect x="1551.08" y="1673.62" width="226.771" height="162.992" style="fill:none;stroke:#231f20;stroke-width:4.17px;"/><rect x="1753.64" y="1813.9" width="49.608" height="43.7" style="fill:#fff;"/><text x="1766.44px" y="1852.33px" style="font-family:'LucidaGrande', 'Lucida Grande', sans-serif;font-weight:500;font-size:50px;fill:#231f20;">6</text><rect x="1753.64" y="1813.9" width="49.608" height="43.7" style="fill:none;stroke:#231f20;stroke-width:4.17px;"/><rect x="847.442" y="1026.69" width="49.608" height="43.7" style="fill:#fff;"/><text x="860.244px" y="1065.12px" style="font-family:'LucidaGrande', 'Lucida Grande', sans-serif;font-weight:500;font-size:50px;fill:#231f20;">4</text><rect x="847.442" y="1026.69" width="49.608" height="43.7" style="fill:none;stroke:#231f20;stroke-width:4.17px;"/><rect x="1316.63" y="1441.23" width="49.608" height="43.7" style="fill:#fff;"/><text x="1329.44px" y="1479.66px" style="font-family:'LucidaGrande', 'Lucida Grande', sans-serif;font-weight:500;font-size:50px;fill:#231f20;">5</text><rect x="1316.63" y="1441.23" width="49.608" height="43.7" style="fill:none;stroke:#231f20;stroke-width:4.17px;"/><rect x="166.742" y="1653.27" width="423.617" height="224.967" style="fill:#fff;"/><g transform="matrix(4.16667,0,0,4.16667,0,0)"><text x="51.053px" y="407.388px" style="font-family:'LucidaGrande', 'Lucida Grande', sans-serif;font-weight:500;font-size:10px;fill:#231f20;">I<tspan x="53.083px 57.354px " y="407.388px 407.388px ">ci</tspan></text><text x="63.393px" y="407.388px" style="font-family:'LucidaGrande', 'Lucida Grande', sans-serif;font-weight:500;font-size:10px;fill:#231f20;">s<tspan x="67.64px " y="407.388px ">e</tspan></text><text x="73.663px" y="407.388px" style="font-family:'LucidaGrande', 'Lucida Grande', sans-serif;font-weight:500;font-size:10px;fill:#231f20;">d<tspan x="79.106px 84.398px 86.437px 89.327px 91.64px 100.125px 104.845px 107.734px 110.624px 113.864px " y="407.388px 407.388px 407.388px 407.388px 407.388px 407.388px 407.388px 407.388px 407.388px 407.388px ">oit mettre</tspan></text><text x="120.352px" y="407.388px" style="font-family:'LucidaGrande', 'Lucida Grande', sans-serif;font-weight:500;font-size:10px;fill:#231f20;">o<tspan x="125.644px " y="407.388px ">u</tspan></text><text x="45.543px" y="419.388px" style="font-family:'LucidaGrande', 'Lucida Grande', sans-serif;font-weight:500;font-size:10px;fill:#231f20;">c<tspan x="49.756px 54.989px 60.286px 64.475px 66.456px 71.841px 76.503px 79.686px 84.348px 87.531px 89.786px 91.767px 96.38px 98.635px 104.02px 108.682px 111.865px 116.054px 121.287px 126.584px 131.881px " y="419.388px 419.388px 419.388px 419.388px 419.388px 419.388px 419.388px 419.388px 419.388px 419.388px 419.388px 419.388px 419.388px 419.388px 419.388px 419.388px 419.388px 419.388px 419.388px 419.388px 419.388px ">onsidérer la personne</tspan></text><text x="44.963px" y="431.388px" style="font-family:'LucidaGrande', 'Lucida Grande', sans-serif;font-weight:500;font-size:10px;fill:#231f20;">d<tspan x="50.271px 54.857px 57.035px 58.94px 63.476px 68.784px 74.005px 78.59px 80.495px 82.4px " y="431.388px 431.388px 431.388px 431.388px 431.388px 431.388px 431.388px 431.388px 431.388px 431.388px ">e laquelle</tspan></text><text x="89.872px" y="431.388px" style="font-family:'LucidaGrande', 'Lucida Grande', sans-serif;font-weight:500;font-size:10px;fill:#231f20;">l<tspan x="91.777px 93.955px 99.112px " y="431.388px 431.388px 431.388px ">’on</tspan></text><text x="105.712px" y="431.388px" style="font-family:'LucidaGrande', 'Lucida Grande', sans-serif;font-weight:500;font-size:10px;fill:#231f20;">c<tspan x="109.848px 115.068px 119.654px 122.76px 126.896px 132.116px " y="431.388px 431.388px 431.388px 431.388px 431.388px 431.388px ">herche</tspan></text><text x="47.633px" y="443.388px" style="font-family:'LucidaGrande', 'Lucida Grande', sans-serif;font-weight:500;font-size:10px;fill:#231f20;">l<tspan x="49.44px " y="443.388px ">e</tspan></text><text x="56.683px" y="443.388px" style="font-family:'LucidaGrande', 'Lucida Grande', sans-serif;font-weight:500;font-size:10px;fill:#231f20;">d<tspan x="61.893px 66.381px 71.532px 74.54px 79.028px 81.108px 86.318px 90.806px 92.886px 98.096px 102.535px 105.543px 110.031px 115.153px 117.809px 122.248px 127.4px 131.887px " y="443.388px 443.388px 443.388px 443.388px 443.388px 443.388px 443.388px 443.388px 443.388px 443.388px 443.388px 443.388px 443.388px 443.388px 443.388px 443.388px 443.388px 443.388px ">egré de parentage.</tspan></text></g><rect x="166.742" y="1653.27" width="423.617" height="224.967" style="fill:none;stroke:#231f20;stroke-width:4.17px;"/></svg>